<svg width="56" height="56" viewBox="0 0 56 56" fill="none" xmlns="http://www.w3.org/2000/svg">
<g id="About us" filter="url(#filter0_ii_338_1974)">
<g clip-path="url(#clip0_338_1974)">
<g id="Background" filter="url(#filter1_d_338_1974)">
<rect width="157.808" height="157.808" fill="url(#paint0_linear_338_1974)"/>
</g>
<g id="Symbols_3_">
<g id="Graphics-_x2F_-App-Icons-_x2F_-Mail">
<g id="Mail-Icon">
<path id="Background_2_" d="M36.4622 0.00195312C42.0622 0.00195312 44.8622 0.00195312 47.9111 0.935287C51.2089 2.11751 53.8222 4.73084 55.0044 8.02862C56 11.0775 56 13.9397 56 19.5397V36.4642C56 42.0642 56 44.8642 55.0667 47.9131C53.8844 51.2108 51.2711 53.8242 47.9733 55.0064C44.9244 56.002 42.0622 56.002 36.4622 56.002H19.5378C13.9378 56.002 11.1378 56.002 8.08889 55.0686C4.79111 53.8242 2.17778 51.2731 0.995556 47.9131C-7.41747e-08 44.9264 0 42.1264 0 36.4642V19.5397C0 13.9397 0 11.1397 0.933333 8.09084C2.17778 4.79306 4.79111 2.17973 8.08889 0.997509C11.0756 0.00195305 13.9378 0.00195312 19.5378 0.00195312H36.4622Z" fill="url(#paint1_linear_338_1974)"/>
<path id="Vector" d="M43.4133 37.9462C43.36 37.9462 43.2533 38 43.2 38H12.8C12.7467 38 12.64 38 12.5867 37.9462L22.08 28.3725L24.1067 30.4701C26.2933 32.7291 29.76 32.7291 31.9467 30.4701L33.9733 28.3725L43.4133 37.9462ZM44 36.9243V17.9382C44 17.8307 44 17.7231 43.9467 17.6693C43.8933 17.7769 34.5067 27.5657 34.5067 27.5657L44 37.1394C44 37.0319 44 36.9781 44 36.9243ZM12 36.9781V18.0458C12 17.9382 12 17.8307 12.0533 17.7769C12.1067 17.8845 21.4933 27.6733 21.4933 27.6733L12.0533 37.1932C12 37.1394 12 37.0319 12 36.9781ZM43.4667 17.0239L31.36 29.502C29.4933 31.3845 26.5067 31.3845 24.6933 29.502L12.5867 17.0239C12.5333 16.9701 43.4667 17.0239 43.4667 17.0239Z" fill="white"/>
</g>
</g>
</g>
</g>
</g>
<defs>
<filter id="filter0_ii_338_1974" x="-1.09589" y="-1.09589" width="58.1918" height="58.1918" filterUnits="userSpaceOnUse" color-interpolation-filters="sRGB">
<feFlood flood-opacity="0" result="BackgroundImageFix"/>
<feBlend mode="normal" in="SourceGraphic" in2="BackgroundImageFix" result="shape"/>
<feColorMatrix in="SourceAlpha" type="matrix" values="0 0 0 0 0 0 0 0 0 0 0 0 0 0 0 0 0 0 127 0" result="hardAlpha"/>
<feOffset dx="1.09589" dy="1.09589"/>
<feGaussianBlur stdDeviation="1.09589"/>
<feComposite in2="hardAlpha" operator="arithmetic" k2="-1" k3="1"/>
<feColorMatrix type="matrix" values="0 0 0 0 1 0 0 0 0 1 0 0 0 0 1 0 0 0 0.4 0"/>
<feBlend mode="normal" in2="shape" result="effect1_innerShadow_338_1974"/>
<feColorMatrix in="SourceAlpha" type="matrix" values="0 0 0 0 0 0 0 0 0 0 0 0 0 0 0 0 0 0 127 0" result="hardAlpha"/>
<feOffset dx="-1.09589" dy="-1.09589"/>
<feGaussianBlur stdDeviation="1.09589"/>
<feComposite in2="hardAlpha" operator="arithmetic" k2="-1" k3="1"/>
<feColorMatrix type="matrix" values="0 0 0 0 1 0 0 0 0 1 0 0 0 0 1 0 0 0 0.2 0"/>
<feBlend mode="normal" in2="effect1_innerShadow_338_1974" result="effect2_innerShadow_338_1974"/>
</filter>
<filter id="filter1_d_338_1974" x="-6.16438" y="0" width="170.137" height="170.137" filterUnits="userSpaceOnUse" color-interpolation-filters="sRGB">
<feFlood flood-opacity="0" result="BackgroundImageFix"/>
<feColorMatrix in="SourceAlpha" type="matrix" values="0 0 0 0 0 0 0 0 0 0 0 0 0 0 0 0 0 0 127 0" result="hardAlpha"/>
<feOffset dy="6.16438"/>
<feGaussianBlur stdDeviation="3.08219"/>
<feComposite in2="hardAlpha" operator="out"/>
<feColorMatrix type="matrix" values="0 0 0 0 0 0 0 0 0 0 0 0 0 0 0 0 0 0 0.25 0"/>
<feBlend mode="normal" in2="BackgroundImageFix" result="effect1_dropShadow_338_1974"/>
<feBlend mode="normal" in="SourceGraphic" in2="effect1_dropShadow_338_1974" result="shape"/>
</filter>
<linearGradient id="paint0_linear_338_1974" x1="78.9041" y1="0" x2="78.9041" y2="157.808" gradientUnits="userSpaceOnUse">
<stop stop-color="#1E53EF"/>
<stop offset="1" stop-color="#19E5FF"/>
</linearGradient>
<linearGradient id="paint1_linear_338_1974" x1="27.9988" y1="0.0193753" x2="27.9988" y2="56.0007" gradientUnits="userSpaceOnUse">
<stop stop-color="#1E51EE"/>
<stop offset="1" stop-color="#19E6FF"/>
</linearGradient>
<clipPath id="clip0_338_1974">
<rect width="56" height="56" rx="28" fill="white"/>
</clipPath>
</defs>
</svg>
