<svg width="24" height="24" viewBox="0 0 24 24" fill="none" xmlns="http://www.w3.org/2000/svg">
<g id="ph:arrow-up-light">
<path id="Vector" d="M13.102 19.1471C12.9967 19.0417 12.9375 18.8987 12.9375 18.7496C12.9375 18.6006 12.9967 18.4576 13.102 18.3521L18.8911 12.5621L3.74952 12.5621C3.60034 12.5621 3.45726 12.5029 3.35177 12.3974C3.24628 12.2919 3.18702 12.1488 3.18702 11.9996C3.18702 11.8505 3.24628 11.7074 3.35177 11.6019C3.45726 11.4964 3.60034 11.4371 3.74952 11.4371L18.8911 11.4371L13.102 5.64714C13.0027 5.54051 12.9486 5.39947 12.9511 5.25375C12.9537 5.10802 13.0127 4.96898 13.1158 4.86592C13.2189 4.76286 13.3579 4.70383 13.5036 4.70126C13.6494 4.69869 13.7904 4.75278 13.897 4.85214L20.647 11.6021C20.7524 11.7076 20.8115 11.8506 20.8115 11.9996C20.8115 12.1487 20.7524 12.2917 20.647 12.3971L13.897 19.1471C13.7915 19.2525 13.6486 19.3116 13.4995 19.3116C13.3505 19.3116 13.2075 19.2525 13.102 19.1471Z" fill="white"/>
</g>
</svg>
