<svg width="56" height="56" viewBox="0 0 56 56" fill="none" xmlns="http://www.w3.org/2000/svg">
<g filter="url(#filter0_ii_338_1985)">
<g clip-path="url(#clip0_338_1985)">
<g filter="url(#filter1_d_338_1985)">
<rect x="-1" width="57" height="57" fill="url(#paint0_linear_338_1985)"/>
</g>
<path d="M27.4995 15.4687C31.4168 15.4687 31.8812 15.4816 33.4292 15.5547C34.8611 15.6192 35.6394 15.86 36.1554 16.0621C36.8391 16.3287 37.3293 16.6469 37.841 17.1586C38.3527 17.6703 38.6709 18.1605 38.9375 18.8442C39.1396 19.3602 39.3761 20.1385 39.4449 21.5704C39.5137 23.1184 39.5309 23.5828 39.5309 27.5001C39.5309 31.4174 39.518 31.8818 39.4449 33.4298C39.3804 34.8617 39.1396 35.64 38.9375 36.156C38.6709 36.8397 38.3527 37.3299 37.841 37.8416C37.3293 38.3533 36.8391 38.6715 36.1554 38.9381C35.6394 39.1402 34.8611 39.3767 33.4292 39.4455C31.8812 39.5143 31.4168 39.5315 27.4995 39.5315C23.5822 39.5315 23.1178 39.5186 21.5698 39.4455C20.1379 39.381 19.3596 39.1402 18.8436 38.9381C18.1599 38.6715 17.6697 38.3533 17.158 37.8416C16.6463 37.3299 16.3281 36.8397 16.0615 36.156C15.8594 35.64 15.6229 34.8617 15.5541 33.4298C15.4853 31.8818 15.4681 31.4174 15.4681 27.5001C15.4681 23.5828 15.481 23.1184 15.5541 21.5704C15.6186 20.1385 15.8594 19.3602 16.0615 18.8442C16.3281 18.1605 16.6463 17.6703 17.158 17.1586C17.6697 16.6469 18.1599 16.3287 18.8436 16.0621C19.3596 15.86 20.1379 15.6235 21.5698 15.5547C23.1178 15.4816 23.5822 15.4687 27.4995 15.4687ZM27.4995 12.8242C23.5134 12.8242 23.0146 12.8414 21.4494 12.9145C19.8885 12.9876 18.8221 13.2327 17.8847 13.5982C16.9215 13.968 16.1002 14.4711 15.2875 15.2881C14.4705 16.1051 13.9717 16.9221 13.5933 17.8896C13.2321 18.8227 12.9827 19.8891 12.9096 21.4543C12.8365 23.0195 12.8193 23.5183 12.8193 27.5044C12.8193 31.4905 12.8365 31.9893 12.9096 33.5545C12.9827 35.1154 13.2278 36.1818 13.5933 37.1192C13.9674 38.0781 14.4705 38.8994 15.2875 39.7121C16.1045 40.5291 16.9215 41.0279 17.889 41.4063C18.8221 41.7675 19.8885 42.0169 21.4537 42.09C23.0189 42.1631 23.5177 42.1803 27.5038 42.1803C31.4899 42.1803 31.9887 42.1631 33.5539 42.09C35.1148 42.0169 36.1812 41.7718 37.1186 41.4063C38.0775 41.0322 38.8988 40.5291 39.7115 39.7121C40.5285 38.8951 41.0273 38.0781 41.4057 37.1106C41.7669 36.1775 42.0163 35.1111 42.0894 33.5459C42.1625 31.9807 42.1797 31.4819 42.1797 27.4958C42.1797 23.5097 42.1625 23.0109 42.0894 21.4457C42.0163 19.8848 41.7712 18.8184 41.4057 17.881C41.0316 16.9221 40.5285 16.1008 39.7115 15.2881C38.8945 14.4711 38.0775 13.9723 37.11 13.5939C36.1769 13.2327 35.1105 12.9833 33.5453 12.9102C31.9844 12.8414 31.4856 12.8242 27.4995 12.8242Z" fill="white"/>
<path d="M27.4998 19.9619C23.3374 19.9619 19.9619 23.3374 19.9619 27.4998C19.9619 31.6622 23.3374 35.0377 27.4998 35.0377C31.6622 35.0377 35.0377 31.6622 35.0377 27.4998C35.0377 23.3374 31.6622 19.9619 27.4998 19.9619ZM27.4998 32.3932C24.7994 32.3932 22.6064 30.2045 22.6064 27.4998C22.6064 24.7951 24.7994 22.6064 27.4998 22.6064C30.2002 22.6064 32.3932 24.7951 32.3932 27.4998C32.3932 30.2045 30.2002 32.3932 27.4998 32.3932Z" fill="white"/>
<path d="M35.334 21.4283C36.3077 21.4283 37.097 20.639 37.097 19.6653C37.097 18.6917 36.3077 17.9023 35.334 17.9023C34.3604 17.9023 33.571 18.6917 33.571 19.6653C33.571 20.639 34.3604 21.4283 35.334 21.4283Z" fill="white"/>
</g>
</g>
<defs>
<filter id="filter0_ii_338_1985" x="-1.09589" y="-1.09589" width="58.1918" height="58.1918" filterUnits="userSpaceOnUse" color-interpolation-filters="sRGB">
<feFlood flood-opacity="0" result="BackgroundImageFix"/>
<feBlend mode="normal" in="SourceGraphic" in2="BackgroundImageFix" result="shape"/>
<feColorMatrix in="SourceAlpha" type="matrix" values="0 0 0 0 0 0 0 0 0 0 0 0 0 0 0 0 0 0 127 0" result="hardAlpha"/>
<feOffset dx="1.09589" dy="1.09589"/>
<feGaussianBlur stdDeviation="1.09589"/>
<feComposite in2="hardAlpha" operator="arithmetic" k2="-1" k3="1"/>
<feColorMatrix type="matrix" values="0 0 0 0 1 0 0 0 0 1 0 0 0 0 1 0 0 0 0.4 0"/>
<feBlend mode="normal" in2="shape" result="effect1_innerShadow_338_1985"/>
<feColorMatrix in="SourceAlpha" type="matrix" values="0 0 0 0 0 0 0 0 0 0 0 0 0 0 0 0 0 0 127 0" result="hardAlpha"/>
<feOffset dx="-1.09589" dy="-1.09589"/>
<feGaussianBlur stdDeviation="1.09589"/>
<feComposite in2="hardAlpha" operator="arithmetic" k2="-1" k3="1"/>
<feColorMatrix type="matrix" values="0 0 0 0 1 0 0 0 0 1 0 0 0 0 1 0 0 0 0.2 0"/>
<feBlend mode="normal" in2="effect1_innerShadow_338_1985" result="effect2_innerShadow_338_1985"/>
</filter>
<filter id="filter1_d_338_1985" x="-7.16438" y="0" width="69.3288" height="69.3288" filterUnits="userSpaceOnUse" color-interpolation-filters="sRGB">
<feFlood flood-opacity="0" result="BackgroundImageFix"/>
<feColorMatrix in="SourceAlpha" type="matrix" values="0 0 0 0 0 0 0 0 0 0 0 0 0 0 0 0 0 0 127 0" result="hardAlpha"/>
<feOffset dy="6.16438"/>
<feGaussianBlur stdDeviation="3.08219"/>
<feComposite in2="hardAlpha" operator="out"/>
<feColorMatrix type="matrix" values="0 0 0 0 0 0 0 0 0 0 0 0 0 0 0 0 0 0 0.25 0"/>
<feBlend mode="normal" in2="BackgroundImageFix" result="effect1_dropShadow_338_1985"/>
<feBlend mode="normal" in="SourceGraphic" in2="effect1_dropShadow_338_1985" result="shape"/>
</filter>
<linearGradient id="paint0_linear_338_1985" x1="7.34745" y1="48.6525" x2="47.6525" y2="8.34745" gradientUnits="userSpaceOnUse">
<stop stop-color="#FFD521"/>
<stop offset="0.0551048" stop-color="#FFD020"/>
<stop offset="0.1241" stop-color="#FEC01E"/>
<stop offset="0.2004" stop-color="#FCA71B"/>
<stop offset="0.2821" stop-color="#FA8316"/>
<stop offset="0.3681" stop-color="#F85510"/>
<stop offset="0.4563" stop-color="#F51E09"/>
<stop offset="0.5" stop-color="#F30005"/>
<stop offset="0.5035" stop-color="#F20007"/>
<stop offset="0.5966" stop-color="#E1003B"/>
<stop offset="0.6879" stop-color="#D30067"/>
<stop offset="0.7757" stop-color="#C70088"/>
<stop offset="0.8589" stop-color="#BF00A0"/>
<stop offset="0.9357" stop-color="#BB00AF"/>
<stop offset="1" stop-color="#B900B4"/>
</linearGradient>
<clipPath id="clip0_338_1985">
<rect width="56" height="56" rx="28" fill="white"/>
</clipPath>
</defs>
</svg>
